<svg width="49" height="49" viewBox="0 0 49 49" fill="none" xmlns="http://www.w3.org/2000/svg">
<path d="M1.12431 10.4213C1.11993 5.17457 5.36968 0.917726 10.6164 0.913348L38.6164 0.889985C43.8631 0.885607 48.1199 5.13535 48.1243 10.3821L48.1477 38.382C48.152 43.6288 43.9023 47.8856 38.6556 47.89L10.6556 47.9133C5.40889 47.9177 1.15205 43.668 1.14767 38.4213L1.12431 10.4213Z" fill="white"/>
<path d="M1.12431 10.4213C1.11993 5.17457 5.36968 0.917726 10.6164 0.913348L38.6164 0.889985C43.8631 0.885607 48.1199 5.13535 48.1243 10.3821L48.1477 38.382C48.152 43.6288 43.9023 47.8856 38.6556 47.89L10.6556 47.9133C5.40889 47.9177 1.15205 43.668 1.14767 38.4213L1.12431 10.4213Z" stroke="#E9EAEB"/>
<path d="M18.7297 23.6354C18.6672 23.2349 18.6346 22.8245 18.6343 22.4067C18.6306 17.9884 22.2329 14.4037 26.6802 14.3999C31.1276 14.3962 34.7359 17.9749 34.7395 22.3932C34.7404 23.3913 34.5572 24.3468 34.2218 25.2282C34.1522 25.4112 34.1174 25.5027 34.1016 25.5742C34.0859 25.645 34.0799 25.6948 34.0783 25.7672C34.0766 25.8404 34.0866 25.9209 34.1066 26.0821L34.5119 29.3519C34.5557 29.7059 34.5777 29.8829 34.5189 30.0116C34.4674 30.1244 34.3758 30.2141 34.262 30.2631C34.132 30.3191 33.9555 30.2934 33.6026 30.242L30.4169 29.7777C30.2506 29.7535 30.1674 29.7414 30.0917 29.7419C30.0168 29.7424 29.9649 29.7479 29.8916 29.7634C29.8175 29.7791 29.7229 29.8146 29.5335 29.8857C28.6505 30.2173 27.6934 30.3991 26.6936 30.3999C26.2754 30.4003 25.8646 30.369 25.4636 30.3082M20.2759 34.4053C23.2408 34.4028 25.6423 31.9384 25.6397 28.9008C25.6372 25.8633 23.2316 23.4028 20.2667 23.4053C17.3018 23.4078 14.9004 25.8722 14.9029 28.9098C14.9034 29.5204 15.001 30.1076 15.1807 30.6563C15.2567 30.8882 15.2947 31.0042 15.3072 31.0834C15.3203 31.1661 15.3226 31.2126 15.3178 31.2962C15.3132 31.3762 15.2933 31.4668 15.2534 31.6478L14.6443 34.41L17.6388 33.9985C17.8022 33.976 17.884 33.9648 17.9553 33.9652C18.0305 33.9657 18.0704 33.9697 18.1441 33.9843C18.2141 33.9982 18.3182 34.0349 18.5264 34.1082C19.0748 34.3012 19.6634 34.4058 20.2759 34.4053Z" stroke="#414651" stroke-width="2" stroke-linecap="round" stroke-linejoin="round"/>
</svg>
