<svg width="49" height="50" viewBox="0 0 49 50" fill="none" xmlns="http://www.w3.org/2000/svg">
<path d="M1.4575 11.0196C1.45312 5.77293 5.70287 1.51608 10.9496 1.51171L38.9496 1.48834C44.1963 1.48397 48.4531 5.73371 48.4575 10.9804L48.4809 38.9804C48.4852 44.2271 44.2355 48.484 38.9888 48.4883L10.9888 48.5117C5.74208 48.5161 1.48524 44.2663 1.48086 39.0196L1.4575 11.0196Z" fill="white"/>
<path d="M1.4575 11.0196C1.45312 5.77293 5.70287 1.51608 10.9496 1.51171L38.9496 1.48834C44.1963 1.48397 48.4531 5.73371 48.4575 10.9804L48.4809 38.9804C48.4852 44.2271 44.2355 48.484 38.9888 48.4883L10.9888 48.5117C5.74208 48.5161 1.48524 44.2663 1.48086 39.0196L1.4575 11.0196Z" stroke="#E9EAEB"/>
<path d="M25.9608 14.9992L17.0632 25.6945C16.7147 26.1133 16.5405 26.3228 16.538 26.4995C16.5358 26.6532 16.6044 26.7993 16.724 26.8958C16.8616 27.0068 17.134 27.0065 17.6789 27.0061L24.9708 27L23.9775 35.0008L32.8751 24.3056C33.2236 23.8867 33.3978 23.6773 33.4003 23.5005C33.4025 23.3469 33.3339 23.2007 33.2143 23.1042C33.0768 22.9932 32.8043 22.9935 32.2595 22.9939L24.9675 23L25.9608 14.9992Z" stroke="#414651" stroke-width="2" stroke-linecap="round" stroke-linejoin="round"/>
</svg>
