<svg width="49" height="49" viewBox="0 0 49 49" fill="none" xmlns="http://www.w3.org/2000/svg">
<path d="M0.790631 10.618C0.786254 5.37131 5.036 1.11447 10.2827 1.11009L38.2827 1.08673C43.5294 1.08235 47.7862 5.3321 47.7906 10.5788L47.814 38.5788C47.8184 43.8255 43.5686 48.0823 38.3219 48.0867L10.3219 48.1101C5.07521 48.1145 0.818372 43.8647 0.813994 38.618L0.790631 10.618Z" fill="white"/>
<path d="M0.790631 10.618C0.786254 5.37131 5.036 1.11447 10.2827 1.11009L38.2827 1.08673C43.5294 1.08235 47.7862 5.3321 47.7906 10.5788L47.814 38.5788C47.8184 43.8255 43.5686 48.0823 38.3219 48.0867L10.3219 48.1101C5.07521 48.1145 0.818372 43.8647 0.813994 38.618L0.790631 10.618Z" stroke="#E9EAEB"/>
<path d="M23.2948 15.5993L20.0948 15.6019C18.4146 15.6033 17.5745 15.604 16.9331 15.9315C16.3688 16.2196 15.9103 16.679 15.6231 17.2437C15.2967 17.8857 15.2974 18.7258 15.2988 20.4059L15.3058 28.8059C15.3072 30.4861 15.3079 31.3262 15.6354 31.9676C15.9235 32.5319 16.3828 32.9904 16.9476 33.2776C17.5896 33.604 18.4296 33.6033 20.1098 33.6019L28.5098 33.5949C30.19 33.5935 31.03 33.5928 31.6715 33.2653C32.2357 32.9772 32.6943 32.5179 32.9814 31.9531C33.3079 31.3111 33.3072 30.4711 33.3058 28.7909L33.3031 25.5909M24.2989 20.5984L28.2989 20.5951L28.3023 24.5951M27.7952 16.0955L27.7939 14.5955M31.7354 17.1529L32.7952 16.0913M32.8096 21.0913L34.3096 21.0901M15.3034 25.953C15.9554 26.0531 16.6234 26.1048 17.3035 26.1043C21.6899 26.1006 25.5671 23.925 27.9186 20.5954" stroke="#414651" stroke-width="2" stroke-linecap="round" stroke-linejoin="round"/>
</svg>
